<svg width="734" height="640" viewBox="0 0 734 640" fill="none" xmlns="http://www.w3.org/2000/svg" xmlns:xlink="http://www.w3.org/1999/xlink">
<rect width="734" height="640" fill="url(#pattern0)"/>
<defs>
<pattern id="pattern0" patternContentUnits="objectBoundingBox" width="1" height="1">
<use xlink:href="#image0_29_3" transform="translate(-0.00408719) scale(0.0013624 0.0015625)"/>
</pattern>
<image id="image0_29_3" width="740" height="640" xlink:href="img/home.svg"/>
</defs>
<path d="M222 532.7L442.8 540.7L512 527V548.7L443.5 568.4L222 557.4V532.7Z" fill="#3595F6" fill-opacity="0.75"/>
<path d="M223 532.7V507.7L443.3 511L513 507.7V527.7L443.7 540.7L223 532.7Z" fill="#3595F6" fill-opacity="0.75"/>
<path d="M223 506.7V481.7H444H513V504.7L445 511.7L223 506.7Z" fill="#3595F6" fill-opacity="0.75"/>
<path d="M223 481.7V456.7L444.3 453L512 459.7V481.7H444" fill="#3595F6" fill-opacity="0.75"/>
<path d="M223 456.7V430.7L444.5 427.4L513 438.4V459.7L444 453L223 456.7Z" fill="#3595F6" fill-opacity="0.75"/>
<path d="M222 430.7V407L443 394.7L514 417.7V439L443 426.7L222 430.7Z" fill="#3595F6" fill-opacity="0.75"/>
<path d="M222 407.7V382.7L444.2 366.4L514 395V415.7L443.7 394L222 407.7Z" fill="#3595F6" fill-opacity="0.75"/>
<path d="M222 383.7V358.7L444.5 338.4L514 375V395.7L442 367L222 383.7Z" fill="#3595F6" fill-opacity="0.75"/>
<path d="M222 358.7V334.7L445 310L514 354V375.7L444.7 337.7L222 358.7Z" fill="#3595F6" fill-opacity="0.75"/>
<path d="M222 333.7V309.7L444.5 281L514 332V352.7L443.7 310.4L222 333.7Z" fill="#3595F6" fill-opacity="0.75"/>
<path d="M221 308.7V284.7L443.3 251.7L514 311V330.7L444 280L221 308.7Z" fill="#3595F6" fill-opacity="0.75"/>
<path d="M222 282.7V258.7L443.2 223.7L513 287.7V308.7L444.3 250.4L222 282.7Z" fill="#3595F6" fill-opacity="0.75"/>
<path d="M222 258.7V233.7L444.3 195.7L513 266V286.7L444 222.7L222 258.7Z" fill="#3595F6" fill-opacity="0.75"/>
<path d="M223 233.7V208.7L443.8 165L514 244V266.7L445 193.4L223 233.7Z" fill="#3595F6" fill-opacity="0.75"/>
<path d="M223 207.7V182.7L443 134.7L513 219.7V242.7L442.3 163.4L223 207.7Z" fill="#3595F6" fill-opacity="0.75"/>
<path d="M222 183.7V158.7L441.8 106.7L513 199V221.7L443.3 135.4L222 183.7Z" fill="#3595F6" fill-opacity="0.75"/>
<path d="M222 158.7V132.7L444 76L513 177.7V198.7L443.7 107L222 158.7Z" fill="#3595F6" fill-opacity="0.75"/>
</svg>
